<svg width="8" height="14" viewBox="0 0 8 14" fill="none" xmlns="http://www.w3.org/2000/svg">
    <path
        d="M7.54 6.29001L1.88 0.640006C1.78704 0.546278 1.67644 0.471884 1.55458 0.421115C1.43272 0.370346 1.30201 0.344208 1.17 0.344208C1.03799 0.344208 0.907283 0.370346 0.785424 0.421115C0.663565 0.471884 0.552964 0.546278 0.460001 0.640006C0.27375 0.827368 0.169209 1.08082 0.169209 1.34501C0.169209 1.60919 0.27375 1.86264 0.460001 2.05001L5.41 7.05001L0.460001 12C0.27375 12.1874 0.169209 12.4408 0.169209 12.705C0.169209 12.9692 0.27375 13.2226 0.460001 13.41C0.552616 13.5045 0.663061 13.5797 0.784936 13.6312C0.906811 13.6827 1.03769 13.7095 1.17 13.71C1.30231 13.7095 1.43319 13.6827 1.55507 13.6312C1.67694 13.5797 1.78739 13.5045 1.88 13.41L7.54 7.76001C7.64151 7.66636 7.72251 7.55271 7.77792 7.42621C7.83333 7.29971 7.86193 7.16311 7.86193 7.02501C7.86193 6.8869 7.83333 6.7503 7.77792 6.6238C7.72251 6.4973 7.64151 6.38365 7.54 6.29001Z"
        fill="#828282" />
</svg>