<svg width="33" height="54" viewBox="0 0 33 54" fill="none" xmlns="http://www.w3.org/2000/svg">
<path d="M12.4182 44.0231C12.4182 44.0231 12.1966 48.6438 12.3674 50.466C12.4182 50.9907 12.5048 51.5117 12.6483 52.0339C12.7251 52.3192 12.8129 52.5636 12.9317 52.7856C13.0505 53.0064 13.204 53.226 13.4886 53.3971C13.6717 53.5088 13.9217 53.572 14.1506 53.5497L14.1642 53.5485C14.5924 53.4964 14.8424 53.2719 15.0181 53.0833C15.1975 52.8836 15.33 52.6702 15.4512 52.4333C15.6975 51.962 15.9549 51.405 16.091 50.7687C16.5823 48.4614 16.5105 44.76 16.5316 44.76C24.3265 44.4809 31.9234 38.8071 32.6498 30.1079C32.9443 25.7416 30.03 18.5793 27.69 12.2072C25.2472 5.8834 23.3687 0.383297 23.3352 0.372133C23.3266 0.369652 17.4448 3.66674 11.8007 8.86045C6.08966 13.9549 0.68928 20.9833 0.361347 26.2142C-0.334119 34.8613 5.48453 41.7531 12.4182 44.0231ZM4.31387 25.9686C5.9622 31.4029 9.2601 35.3922 13.5851 37.8731C13.772 33.0353 14.2298 28.6727 15.0255 24.4577C11.7375 22.0252 9.76128 18.7641 9.04477 15.0924C10.1635 18.7778 12.3699 21.5117 15.2631 23.2533C16.685 16.3341 19.0486 9.7238 22.6744 1.93012C19.452 10.3229 17.6663 17.0337 16.6813 23.3897C20.0955 22.633 23.1335 20.6471 25.361 17.3426C23.537 20.7538 20.5559 23.3488 16.4944 24.6624C15.8769 29.0908 15.6195 33.3082 15.5304 37.9301C20.2737 36.7889 24.4997 34.0525 27.6108 29.4393C25.0789 34.1741 21.213 37.9438 15.5168 39.8044C15.4995 41.3773 15.4574 42.9514 15.4611 44.626C15.4611 46.4184 15.45 50.6458 14.0454 50.956C13.1248 51.1594 13.5047 47.6068 13.4873 44.3506C13.4787 42.8038 13.4911 41.3103 13.5245 39.8602C8.0882 36.2828 5.38801 31.4736 4.31387 25.9686Z" fill="#107C03"/>
</svg>
