<svg xmlns="http://www.w3.org/2000/svg">
    <symbol id="arrow" viewBox="0 0 22 18" xmlns="http://www.w3.org/2000/svg">
        <path d="M12.5923 16.6858C12.3429 16.9333 12.3429 17.3331 12.5923 17.5807C12.7202 17.7076 12.88 17.7647 13.0463 17.7647C13.2125 17.7647 13.3724 17.7012 13.5003 17.5807L21.813 9.33055C22.0623 9.08305 22.0623 8.68323 21.813 8.43573L13.5003 0.185627C13.2509 -0.0618758 12.8481 -0.0618758 12.5987 0.185627C12.3493 0.43313 12.3493 0.832943 12.5987 1.08045L19.8179 8.24534L1.53644 8.24534C1.18475 8.24534 0.897003 8.53092 0.897003 8.87997C0.897003 9.22901 1.18475 9.51459 1.53644 9.51459L19.8179 9.51459L12.5923 16.6858Z"/>
    </symbol>
    <symbol xmlns="http://www.w3.org/2000/svg" viewBox="0 0 16 16" id="info">
        <path d="M7.99992 4.66665C7.82311 4.66665 7.65354 4.73688 7.52852 4.86191C7.40349 4.98693 7.33325 5.1565 7.33325 5.33331V7.99998C7.33325 8.17679 7.40349 8.34636 7.52852 8.47138C7.65354 8.59641 7.82311 8.66665 7.99992 8.66665C8.17673 8.66665 8.3463 8.59641 8.47133 8.47138C8.59635 8.34636 8.66659 8.17679 8.66659 7.99998V5.33331C8.66659 5.1565 8.59635 4.98693 8.47133 4.86191C8.3463 4.73688 8.17673 4.66665 7.99992 4.66665ZM8.61325 10.4133C8.59866 10.3708 8.57849 10.3305 8.55325 10.2933L8.47325 10.1933C8.37951 10.1008 8.26046 10.0381 8.13113 10.0132C8.0018 9.98831 7.868 10.0023 7.74659 10.0533C7.6658 10.0871 7.59139 10.1344 7.52659 10.1933C7.4648 10.2556 7.41592 10.3295 7.38274 10.4107C7.34956 10.4919 7.33275 10.5789 7.33325 10.6666C7.33431 10.7538 7.35243 10.8398 7.38659 10.92C7.41653 11.0027 7.4643 11.0778 7.52651 11.1401C7.58872 11.2023 7.66386 11.25 7.74659 11.28C7.82639 11.3153 7.91267 11.3335 7.99992 11.3335C8.08717 11.3335 8.17345 11.3153 8.25325 11.28C8.33599 11.25 8.41112 11.2023 8.47333 11.1401C8.53554 11.0778 8.58331 11.0027 8.61325 10.92C8.64742 10.8398 8.66553 10.7538 8.66659 10.6666C8.66986 10.6223 8.66986 10.5777 8.66659 10.5333C8.65511 10.4908 8.63712 10.4503 8.61325 10.4133ZM7.99992 1.33331C6.68138 1.33331 5.39245 1.72431 4.29612 2.45685C3.19979 3.18939 2.34531 4.23058 1.84072 5.44876C1.33614 6.66693 1.20412 8.00738 1.46135 9.30058C1.71859 10.5938 2.35353 11.7817 3.28588 12.714C4.21823 13.6464 5.40611 14.2813 6.69932 14.5385C7.99253 14.7958 9.33297 14.6638 10.5511 14.1592C11.7693 13.6546 12.8105 12.8001 13.5431 11.7038C14.2756 10.6075 14.6666 9.31852 14.6666 7.99998C14.6666 7.1245 14.4941 6.25759 14.1591 5.44876C13.8241 4.63992 13.333 3.90499 12.714 3.28593C12.0949 2.66688 11.36 2.17581 10.5511 1.84078C9.74231 1.50575 8.8754 1.33331 7.99992 1.33331ZM7.99992 13.3333C6.94509 13.3333 5.91394 13.0205 5.03688 12.4345C4.15982 11.8484 3.47623 11.0155 3.07256 10.041C2.6689 9.06642 2.56328 7.99406 2.76907 6.9595C2.97485 5.92493 3.48281 4.97462 4.22869 4.22874C4.97457 3.48286 5.92487 2.97491 6.95944 2.76912C7.99401 2.56334 9.06636 2.66895 10.0409 3.07262C11.0154 3.47629 11.8484 4.15988 12.4344 5.03694C13.0205 5.914 13.3333 6.94515 13.3333 7.99998C13.3333 9.41447 12.7714 10.771 11.7712 11.7712C10.771 12.7714 9.41441 13.3333 7.99992 13.3333Z" fill="#959CA0"></path>
    </symbol>
</svg>