<?xml version="1.0" encoding="utf-8"?>
<!-- Generator: Adobe Illustrator 23.0.0, SVG Export Plug-In . SVG Version: 6.00 Build 0)  -->
<svg version="1.1" xmlns="http://www.w3.org/2000/svg" xmlns:xlink="http://www.w3.org/1999/xlink" x="0px" y="0px"
	 viewBox="0 0 53.63 56.38" style="enable-background:new 0 0 53.63 56.38;" xml:space="preserve">
<style type="text/css">
	.st0{fill:#107c03;}
	.st2{fill:#FFFFFF;}
	.st3{fill:#107c03;}
</style>
<g id="bg">
</g>
<g id="icons">
	<g>
		<path class="st3" d="M25.85,43.04c0.19,0.21,0.46,0.33,0.75,0.33c0.29,0.02,0.56-0.12,0.75-0.34c0.34-0.39,8.48-9.7,12.97-19.99
			c0.99-2.06,1.49-4.25,1.49-6.5c0-8.36-6.84-15.17-15.26-15.17c-8.41,0-15.26,6.8-15.26,15.17c0,2.29,0.49,4.48,1.45,6.47
			C17.24,33.33,25.5,42.65,25.85,43.04z M26.54,3.38c7.31,0,13.26,5.91,13.26,13.17c0,1.95-0.43,3.85-1.31,5.67
			c-3.6,8.24-9.78,16.05-11.9,18.62c-2.15-2.56-8.42-10.38-12.03-18.65c-0.84-1.76-1.27-3.65-1.27-5.64
			C13.29,9.28,19.23,3.38,26.54,3.38z"/>
		<path class="st3" d="M26.54,23.61c3.99,0,7.24-3.25,7.24-7.24c0-3.99-3.25-7.24-7.24-7.24c-3.99,0-7.24,3.25-7.24,7.24
			C19.31,20.36,22.55,23.61,26.54,23.61z M26.54,11.14c2.89,0,5.24,2.35,5.24,5.24s-2.35,5.24-5.24,5.24s-5.24-2.35-5.24-5.24
			S23.66,11.14,26.54,11.14z"/>
		<path class="st3" d="M52.56,54.12l-6-23c-0.08-0.31-0.3-0.56-0.6-0.68l-5-2l-0.74,1.86l4.53,1.81l5.32,20.38l-10.03-5.01
			c-0.27-0.14-0.59-0.14-0.87-0.01l-12.58,5.81l-12.58-5.81c-0.27-0.13-0.59-0.12-0.87,0.01L3.12,52.5l5.32-20.38l4.53-1.81
			l-0.74-1.86l-5,2c-0.29,0.12-0.52,0.37-0.6,0.68l-6,23c-0.1,0.38,0.03,0.78,0.34,1.03c0.31,0.25,0.73,0.29,1.08,0.12l11.57-5.79
			l12.56,5.8c0.27,0.12,0.57,0.12,0.84,0l12.56-5.8l11.57,5.79c0.14,0.07,0.3,0.11,0.45,0.11c0.22,0,0.45-0.08,0.63-0.22
			C52.53,54.9,52.66,54.5,52.56,54.12z"/>
	</g>
</g>
</svg>
