<svg xmlns="http://www.w3.org/2000/svg" viewBox="0 0 261.54 428.74"><defs><style>.cls-1{fill:#749719;}</style></defs><g id="Слой_2" data-name="Слой 2"><g id="Layer_1" data-name="Layer 1"><path class="cls-1" d="M97.89,351.9s-1.78,37.25-.41,51.94a74.22,74.22,0,0,0,2.26,12.64,27.61,27.61,0,0,0,2.3,6.06,11.92,11.92,0,0,0,4.5,4.93,9,9,0,0,0,5.35,1.23H112a10.84,10.84,0,0,0,6.9-3.75,24.21,24.21,0,0,0,3.5-5.24,52.81,52.81,0,0,0,5.17-13.42c4-18.6,3.39-48.44,3.56-48.44,63-2.25,124.37-48,130.24-118.12,2.38-35.2-21.17-92.94-40.08-144.31C201.55,44.43,186.38.09,186.1,0,186,0,138.5,26.56,92.89,68.43,46.75,109.5,3.1,166.16.46,208.33-5.16,278,41.85,333.6,97.89,351.9ZM32.4,206.35c13.32,43.81,40,76,74.91,96,1.51-39,5.21-74.17,11.64-108.15-26.58-19.61-42.54-45.9-48.34-75.5,9,29.71,26.88,51.75,50.26,65.79,11.49-55.78,30.59-109.06,59.89-171.9-26,67.66-40.47,121.76-48.43,173,27.59-6.1,52.14-22.11,70.14-48.75-14.74,27.5-38.84,48.41-71.66,59-5,35.7-7.07,69.7-7.78,107,38.32-9.2,72.47-31.26,97.61-68.46-20.46,38.17-51.7,68.56-97.73,83.57-.14,12.68-.47,25.36-.45,38.87,0,14.45-.09,48.53-11.44,51-7.44,1.64-4.38-27-4.51-53.25-.08-12.47,0-24.51.3-36.2C62.9,289.5,41.07,250.73,32.4,206.35Z"/></g></g></svg>