<svg xmlns="http://www.w3.org/2000/svg" viewBox="0 0 326.88 384">
    <defs>
        <style>
            .cls-1,
            .cls-2 {
                fill: none;
                stroke: #fff;
                stroke-linejoin: round;
                stroke-width: 16px;
            }

            .cls-1 {
                stroke-linecap: round;
            }
        </style>
    </defs>
    <g id="Слой_2" data-name="Слой 2">
        <g id="Large_Preview" data-name="Large Preview">
            <path class="cls-1"
                d="M232,137.07V102.93l-29.46-4.26a84.89,84.89,0,0,0-9.09-22l17.81-23.85L187.13,28.74,163.28,46.55a84.89,84.89,0,0,0-21.95-9.09L137.07,8H102.93L98.67,37.46a84.89,84.89,0,0,0-22,9.09L52.87,28.74,28.74,52.87,46.55,76.72a84.89,84.89,0,0,0-9.09,22L8,102.93v34.14l29.46,4.26a84.89,84.89,0,0,0,9.09,21.95L28.74,187.13l24.13,24.13,23.85-17.81a84.89,84.89,0,0,0,22,9.09L102.93,232h34.14l4.26-29.46a84.89,84.89,0,0,0,21.95-9.09l23.85,17.81,24.13-24.13-17.81-23.85a84.89,84.89,0,0,0,9.09-21.95Z" />
            <circle class="cls-1" cx="120" cy="120" r="32" />
            <path class="cls-2"
                d="M304,296a64.29,64.29,0,0,0-.68-8.84l15.56-14.53-19.2-33.26-20.35,6.21A63.76,63.76,0,0,0,264,236.7L259.2,216H220.8L216,236.7a63.76,63.76,0,0,0-15.33,8.88l-20.35-6.21-19.2,33.26,15.56,14.53a57.8,57.8,0,0,0,0,17.68l-15.56,14.53,19.2,33.26,20.35-6.21A63.76,63.76,0,0,0,216,355.3l4.8,20.7h38.4l4.8-20.7a63.76,63.76,0,0,0,15.33-8.88l20.35,6.21,19.2-33.26-15.56-14.53A64.29,64.29,0,0,0,304,296Z" />
            <circle class="cls-2" cx="240" cy="296" r="24" />
        </g>
    </g>
</svg>