<?xml version="1.0" encoding="utf-8"?>
<!-- Generator: Adobe Illustrator 23.0.0, SVG Export Plug-In . SVG Version: 6.00 Build 0)  -->
<svg version="1.1" xmlns="http://www.w3.org/2000/svg" xmlns:xlink="http://www.w3.org/1999/xlink" x="0px" y="0px"
	 viewBox="0 0 45.25 46.63" style="enable-background:new 0 0 45.25 46.63;" xml:space="preserve">
<style type="text/css">
	.st0{fill:#107c03}
	.st2{fill:#FFFFFF;}
	.st3{fill:#107c03}
</style>
<g id="bg">
</g>
<g id="icons">
	<path class="st3" d="M42.61,34.99l-9.51-6.51c-1.34-0.91-3.3-0.58-4.23,0.7l-2.47,3.49c-0.15,0.21-0.27,0.45-0.35,0.7
		c-0.32,0.21-0.89,0.46-1.73,0.46c-1.38,0-3.74-0.7-7.1-4.06c-5.58-5.58-5.62-8.03-4.87-9.91c0.18-0.08,0.35-0.18,0.5-0.3l3.41-2.58
		c1.3-0.98,1.56-2.89,0.57-4.26l-6.82-9.29C8.65,1.57,6.98,1.36,5.23,2.86C4.17,3.78,2.41,5.97,1.69,7.28C1.28,8,1.1,8.75,1.17,9.5
		c-3.21,12.56,6.29,22.93,9.29,25.83c8.2,7.93,15.81,9.55,20.76,9.55c0,0,0,0,0,0c2.81,0,4.84-0.5,5.74-0.88
		c0.7,0.02,1.41-0.16,2.09-0.57c1.3-0.77,3.43-2.59,4.3-3.68c0.72-0.89,1.01-1.72,0.88-2.54C44.11,36.38,43.58,35.65,42.61,34.99z
		 M41.79,38.51c-0.72,0.9-2.68,2.59-3.77,3.23c-0.4,0.24-0.78,0.34-1.14,0.3c-0.2-0.02-0.39,0.02-0.57,0.11
		c-0.42,0.22-2.25,0.83-5.1,0.83h0c-4.58,0-11.65-1.57-19.37-9.04C9.04,31.22,0.1,21.44,3.15,9.83c0.03-0.13,0.04-0.27,0.02-0.4
		C3.12,9.05,3.2,8.67,3.43,8.26c0.61-1.1,2.23-3.13,3.1-3.88c0.37-0.32,0.71-0.5,0.94-0.5c0.32,0,0.69,0.41,0.94,0.75l6.81,9.29
		c0.35,0.49,0.28,1.15-0.16,1.48l-3.42,2.59c-0.06,0.05-0.14,0.08-0.26,0.11c-0.3,0.07-0.55,0.28-0.67,0.55
		C9.26,21.8,9.61,25,15.82,31.2c3.08,3.08,5.95,4.65,8.51,4.65c1.72,0,2.79-0.71,3.28-1.13c0.18-0.16,0.3-0.37,0.33-0.61
		c0.02-0.11,0.05-0.2,0.1-0.27l2.46-3.49c0.31-0.43,1-0.53,1.47-0.21l9.51,6.5c0.47,0.32,0.74,0.62,0.77,0.87
		C42.29,37.74,42.13,38.1,41.79,38.51z"/>
</g>
</svg>
