<svg xmlns="http://www.w3.org/2000/svg" viewBox="0 0 304 360">
    <defs>
        <style>
            .cls-1,
            .cls-2,
            .cls-3 {
                fill: none;
                stroke: #fff;
                stroke-width: 16px;
            }

            .cls-1 {
                stroke-linecap: round;
            }

            .cls-1,
            .cls-2 {
                stroke-miterlimit: 10;
            }

            .cls-3 {
                stroke-linejoin: round;
            }
        </style>
    </defs>
    <g id="Слой_2" data-name="Слой 2">
        <g id="Large_Preview" data-name="Large Preview">
            <path class="cls-1"
                d="M88,224h16c13.76,0,20.64,16,40,16h52c16,0,23.49-8.31,27.11-23.79C225.88,204.38,232,160,232,160c1.5-14.25-8-24-24-24h-4.87" />
            <path class="cls-1"
                d="M136,184c18.24,0,34-15,36.56-32.06.83-5.57,1.44-11.17,4.44-15.94,2.83-4.5,6.83-15.64,6.83-27.9,0-12.43-3.16-18.86-10.88-24.78C164.5,76.83,152,81.32,152,88v8c0,14.92-7.78,16.73-19.07,27.88,0,0-14.74,12.12-28.93,12.12H88" />
            <polyline class="cls-2" points="56 128 88 128 88 232 56 232" />
            <path class="cls-3"
                d="M152,8c14.22,19.62,103.37,56,144,56V216c0,54.23-135.88,133.89-144,136C143.88,349.89,8,270.23,8,216V64C48.63,64,137.78,27.62,152,8Z" />
        </g>
    </g>
</svg>