<?xml version="1.0" encoding="utf-8"?><!DOCTYPE svg PUBLIC "-//W3C//DTD SVG 20010904//EN" "http://www.w3.org/TR/2001/REC-SVG-20010904/DTD/svg10.dtd"><svg xmlns="http://www.w3.org/2000/svg" xmlns:xlink="http://www.w3.org/1999/xlink"><symbol viewBox="0 0 35 30" id="arrow" xmlns="http://www.w3.org/2000/svg"><defs><style>.acls-1{fill:rgba(255,255,255,0.3);stroke:rgba(255,255,255,.3);stroke-miterlimit:10;stroke-width:3px}</style></defs><g id="aСлой_2" data-name="Слой 2"><path class="acls-1" d="M19.29 27.29a1 1 0 000 1.42 1 1 0 001.42 0l13-13a1 1 0 000-1.42l-13-13a1 1 0 00-1.42 1.42L30.59 14H2a1 1 0 000 2h28.59z" id="aicons"/></g></symbol><symbol viewBox="0 0 33 28" id="arrow-up" xmlns="http://www.w3.org/2000/svg"><path class="bcls-1" d="M18.29 26.29a1 1 0 000 1.42 1 1 0 001.42 0l13-13a1 1 0 000-1.42l-13-13a1 1 0 00-1.42 1.42L29.59 13H1a1 1 0 000 2h28.59z" data-name="Слой 2"/></symbol><symbol viewBox="0 0 53.63 56.38" id="geo" xmlns="http://www.w3.org/2000/svg"><style>.cst3{fill:#107c03}</style><g id="cicons"><path class="cst3" d="M25.85 43.04c.19.21.46.33.75.33.29.02.56-.12.75-.34.34-.39 8.48-9.7 12.97-19.99.99-2.06 1.49-4.25 1.49-6.5 0-8.36-6.84-15.17-15.26-15.17-8.41 0-15.26 6.8-15.26 15.17 0 2.29.49 4.48 1.45 6.47 4.5 10.32 12.76 19.64 13.11 20.03zm.69-39.66c7.31 0 13.26 5.91 13.26 13.17 0 1.95-.43 3.85-1.31 5.67-3.6 8.24-9.78 16.05-11.9 18.62-2.15-2.56-8.42-10.38-12.03-18.65-.84-1.76-1.27-3.65-1.27-5.64 0-7.27 5.94-13.17 13.25-13.17z"/><path class="cst3" d="M26.54 23.61c3.99 0 7.24-3.25 7.24-7.24s-3.25-7.24-7.24-7.24-7.24 3.25-7.24 7.24c.01 3.99 3.25 7.24 7.24 7.24zm0-12.47c2.89 0 5.24 2.35 5.24 5.24s-2.35 5.24-5.24 5.24-5.24-2.35-5.24-5.24 2.36-5.24 5.24-5.24zM52.56 54.12l-6-23a.998.998 0 00-.6-.68l-5-2-.74 1.86 4.53 1.81 5.32 20.38-10.03-5.01a.985.985 0 00-.87-.01l-12.58 5.81-12.58-5.81a1.02 1.02 0 00-.87.01L3.12 52.5l5.32-20.38 4.53-1.81-.74-1.86-5 2c-.29.12-.52.37-.6.68l-6 23c-.1.38.03.78.34 1.03.31.25.73.29 1.08.12l11.57-5.79 12.56 5.8c.27.12.57.12.84 0l12.56-5.8 11.57 5.79c.14.07.3.11.45.11.22 0 .45-.08.63-.22.3-.27.43-.67.33-1.05z"/></g></symbol><symbol viewBox="0 0 261.54 428.74" id="list" xmlns="http://www.w3.org/2000/svg"><defs><style>.dcls-1{fill:#749719}</style></defs><g id="dСлой_2" data-name="Слой 2"><path class="dcls-1" d="M97.89 351.9s-1.78 37.25-.41 51.94a74.22 74.22 0 002.26 12.64 27.61 27.61 0 002.3 6.06 11.92 11.92 0 004.5 4.93 9 9 0 005.35 1.23h.11a10.84 10.84 0 006.9-3.75 24.21 24.21 0 003.5-5.24 52.81 52.81 0 005.17-13.42c4-18.6 3.39-48.44 3.56-48.44 63-2.25 124.37-48 130.24-118.12 2.38-35.2-21.17-92.94-40.08-144.31C201.55 44.43 186.38.09 186.1 0c-.1 0-47.6 26.56-93.21 68.43C46.75 109.5 3.1 166.16.46 208.33-5.16 278 41.85 333.6 97.89 351.9zM32.4 206.35c13.32 43.81 40 76 74.91 96 1.51-39 5.21-74.17 11.64-108.15-26.58-19.61-42.54-45.9-48.34-75.5 9 29.71 26.88 51.75 50.26 65.79 11.49-55.78 30.59-109.06 59.89-171.9-26 67.66-40.47 121.76-48.43 173 27.59-6.1 52.14-22.11 70.14-48.75-14.74 27.5-38.84 48.41-71.66 59-5 35.7-7.07 69.7-7.78 107 38.32-9.2 72.47-31.26 97.61-68.46-20.46 38.17-51.7 68.56-97.73 83.57-.14 12.68-.47 25.36-.45 38.87 0 14.45-.09 48.53-11.44 51-7.44 1.64-4.38-27-4.51-53.25-.08-12.47 0-24.51.3-36.2C62.9 289.5 41.07 250.73 32.4 206.35z" id="dLayer_1" data-name="Layer 1"/></g></symbol><symbol viewBox="0 0 54 42" id="mail" xmlns="http://www.w3.org/2000/svg"><defs><style>.ecls-1{fill:#107c03}</style></defs><g id="eСлой_2" data-name="Слой 2"><g id="eicons"><path class="ecls-1" d="M49 0H5a5 5 0 00-5 5v32a5 5 0 005 5h44a5 5 0 005-5V5a5 5 0 00-5-5zm3 37a3 3 0 01-3 3H5a3 3 0 01-3-3V5a3 3 0 013-3h44a3 3 0 013 3z"/><path class="ecls-1" d="M48.35 4.24l-19 16.39a3.79 3.79 0 01-4.74 0L5.65 4.24a1 1 0 00-1.3 1.52l19 16.38a5.79 5.79 0 007.36 0l19-16.38a1 1 0 00-1.3-1.52z"/></g></g></symbol><symbol viewBox="0 0 965 956" id="play" xmlns="http://www.w3.org/2000/svg"><path d="M64.5 1.5c-28.5 5.2-51.4 25-61.2 53l-2.8 8-.3 412C0 852.2.1 887.1 1.6 894c5.2 24 20.4 43 42.9 53.6 12.6 6 20.5 7.7 35 7.7 10-.1 13.5-.5 20.8-2.7 6.7-2 108.9-52.3 414.5-203.8C738 638.1 923.3 545.9 926.7 543.9c8.9-5.3 14.7-10.4 20.9-18.2 26.7-33.9 20.4-83.1-13.9-109.2-5.2-4-100.7-51.8-415-207.5C294.2 97.7 108 5.8 105 4.7 92.4.2 77.6-.9 64.5 1.5z"/></symbol><symbol viewBox="0 0 326.88 384" id="set" xmlns="http://www.w3.org/2000/svg"><defs><style>.gcls-1,.gcls-2{fill:none;stroke:#fff;stroke-linejoin:round;stroke-width:16px}.gcls-1{stroke-linecap:round}</style></defs><g id="gСлой_2" data-name="Слой 2"><g id="gLarge_Preview" data-name="Large Preview"><path class="gcls-1" d="M232 137.07v-34.14l-29.46-4.26a84.89 84.89 0 00-9.09-22l17.81-23.85-24.13-24.08-23.85 17.81a84.89 84.89 0 00-21.95-9.09L137.07 8h-34.14l-4.26 29.46a84.89 84.89 0 00-22 9.09l-23.8-17.81-24.13 24.13 17.81 23.85a84.89 84.89 0 00-9.09 22L8 102.93v34.14l29.46 4.26a84.89 84.89 0 009.09 21.95l-17.81 23.85 24.13 24.13 23.85-17.81a84.89 84.89 0 0022 9.09l4.21 29.46h34.14l4.26-29.46a84.89 84.89 0 0021.95-9.09l23.85 17.81 24.13-24.13-17.81-23.85a84.89 84.89 0 009.09-21.95z"/><circle class="gcls-1" cx="120" cy="120" r="32"/><path class="gcls-2" d="M304 296a64.29 64.29 0 00-.68-8.84l15.56-14.53-19.2-33.26-20.35 6.21A63.76 63.76 0 00264 236.7l-4.8-20.7h-38.4l-4.8 20.7a63.76 63.76 0 00-15.33 8.88l-20.35-6.21-19.2 33.26 15.56 14.53a57.8 57.8 0 000 17.68l-15.56 14.53 19.2 33.26 20.35-6.21A63.76 63.76 0 00216 355.3l4.8 20.7h38.4l4.8-20.7a63.76 63.76 0 0015.33-8.88l20.35 6.21 19.2-33.26-15.56-14.53A64.29 64.29 0 00304 296z"/><circle class="gcls-2" cx="240" cy="296" r="24"/></g></g></symbol><symbol viewBox="0 0 45.25 46.63" id="tel" xmlns="http://www.w3.org/2000/svg"><style>.hst3{fill:#107c03}</style><path class="hst3" d="M42.61 34.99l-9.51-6.51c-1.34-.91-3.3-.58-4.23.7l-2.47 3.49c-.15.21-.27.45-.35.7-.32.21-.89.46-1.73.46-1.38 0-3.74-.7-7.1-4.06-5.58-5.58-5.62-8.03-4.87-9.91.18-.08.35-.18.5-.3l3.41-2.58c1.3-.98 1.56-2.89.57-4.26l-6.82-9.29c-1.36-1.86-3.03-2.07-4.78-.57-1.06.92-2.82 3.11-3.54 4.42-.41.72-.59 1.47-.52 2.22-3.21 12.56 6.29 22.93 9.29 25.83 8.2 7.93 15.81 9.55 20.76 9.55 2.81 0 4.84-.5 5.74-.88.7.02 1.41-.16 2.09-.57 1.3-.77 3.43-2.59 4.3-3.68.72-.89 1.01-1.72.88-2.54-.12-.83-.65-1.56-1.62-2.22zm-.82 3.52c-.72.9-2.68 2.59-3.77 3.23-.4.24-.78.34-1.14.3-.2-.02-.39.02-.57.11-.42.22-2.25.83-5.1.83-4.58 0-11.65-1.57-19.37-9.04C9.04 31.22.1 21.44 3.15 9.83c.03-.13.04-.27.02-.4-.05-.38.03-.76.26-1.17.61-1.1 2.23-3.13 3.1-3.88.37-.32.71-.5.94-.5.32 0 .69.41.94.75l6.81 9.29c.35.49.28 1.15-.16 1.48l-3.42 2.59c-.06.05-.14.08-.26.11-.3.07-.55.28-.67.55C9.26 21.8 9.61 25 15.82 31.2c3.08 3.08 5.95 4.65 8.51 4.65 1.72 0 2.79-.71 3.28-1.13.18-.16.3-.37.33-.61.02-.11.05-.2.1-.27l2.46-3.49c.31-.43 1-.53 1.47-.21l9.51 6.5c.47.32.74.62.77.87.04.23-.12.59-.46 1z" id="hicons"/></symbol><symbol viewBox="0 0 304 360" id="up" xmlns="http://www.w3.org/2000/svg"><defs><style>.icls-1,.icls-2,.icls-3{fill:none;stroke:#fff;stroke-width:16px}.icls-1{stroke-linecap:round}.icls-1,.icls-2{stroke-miterlimit:10}.icls-3{stroke-linejoin:round}</style></defs><g id="iСлой_2" data-name="Слой 2"><g id="iLarge_Preview" data-name="Large Preview"><path class="icls-1" d="M88 224h16c13.76 0 20.64 16 40 16h52c16 0 23.49-8.31 27.11-23.79C225.88 204.38 232 160 232 160c1.5-14.25-8-24-24-24h-4.87"/><path class="icls-1" d="M136 184c18.24 0 34-15 36.56-32.06.83-5.57 1.44-11.17 4.44-15.94 2.83-4.5 6.83-15.64 6.83-27.9 0-12.43-3.16-18.86-10.88-24.78-8.45-6.49-20.95-2-20.95 4.68v8c0 14.92-7.78 16.73-19.07 27.88 0 0-14.74 12.12-28.93 12.12H88"/><path class="icls-2" d="M56 128h32v104H56"/><path class="icls-3" d="M152 8c14.22 19.62 103.37 56 144 56v152c0 54.23-135.88 133.89-144 136-8.12-2.11-144-81.77-144-136V64c40.63 0 129.78-36.38 144-56z"/></g></g></symbol></svg>