<svg xmlns="http://www.w3.org/2000/svg" width="22" height="18" viewBox="0 0 22 18" fill="none">
    <path
        d="M11.6953 16.6858C11.4459 16.9333 11.4459 17.3331 11.6953 17.5807C11.8232 17.7076 11.983 17.7647 12.1493 17.7647C12.3155 17.7647 12.4754 17.7012 12.6033 17.5807L20.916 9.33055C21.1653 9.08305 21.1653 8.68323 20.916 8.43573L12.6033 0.185627C12.3539 -0.0618758 11.9511 -0.0618758 11.7017 0.185627C11.4523 0.43313 11.4523 0.832943 11.7017 1.08045L18.9209 8.24534L0.639436 8.24534C0.287746 8.24534 0 8.53092 0 8.87997C0 9.22901 0.287746 9.51459 0.639436 9.51459L18.9209 9.51459L11.6953 16.6858Z"
        fill="#FF6600" />
</svg>