<svg width="15" height="17" viewBox="0 0 15 17" fill="none" xmlns="http://www.w3.org/2000/svg">
<path d="M1.61129 9.46254C1.42258 9.27578 1.11774 9.27578 0.92903 9.46254C0.832256 9.55831 0.788707 9.67803 0.788707 9.80254C0.788707 9.92705 0.837095 10.0468 0.92903 10.1425L7.21935 16.3679C7.40806 16.5547 7.7129 16.5547 7.90161 16.3679L14.1919 10.1425C14.3806 9.95578 14.3806 9.65409 14.1919 9.46733C14.0032 9.28057 13.6984 9.28057 13.5097 9.46733L8.04677 14.8738L8.04677 1.18282C8.04677 0.919442 7.82903 0.703949 7.5629 0.703949C7.29677 0.703949 7.07903 0.919442 7.07903 1.18282L7.07903 14.8738L1.61129 9.46254Z" fill="#107C03"/>
</svg>
