<svg width="163" height="96" viewBox="0 0 163 96" fill="none" xmlns="http://www.w3.org/2000/svg">
<path d="M50.9339 58.0659L43.1589 81.9188L35.7015 58.0659H26.0756L18.248 81.7079L10.7906 58.0659H0L12.0061 95.0887H23.2185L30.6234 72.5572L37.7106 95.0887H48.923L60.9291 58.0659H50.9339ZM76.4766 65.9469C67.115 65.9469 60.292 72.0829 60.292 80.7033C60.292 89.378 67.115 95.5657 76.4766 95.5657C85.9441 95.5657 92.6612 89.378 92.6612 80.7033C92.6612 72.0821 85.9441 65.9469 76.4766 65.9469ZM76.4766 87.5788C73.0918 87.5788 70.4473 85.0927 70.4473 80.7025C70.4473 76.3656 73.0909 73.9328 76.4766 73.9328C79.9148 73.9328 82.5059 76.3656 82.5059 80.7025C82.5059 85.0927 79.9148 87.5788 76.4766 87.5788ZM111.699 65.9469C102.339 65.9469 95.5157 72.0829 95.5157 80.7033C95.5157 89.378 102.339 95.5657 111.699 95.5657C121.167 95.5657 127.884 89.378 127.884 80.7033C127.884 72.0821 121.167 65.9469 111.699 65.9469ZM111.699 87.5788C108.315 87.5788 105.67 85.0927 105.67 80.7025C105.67 76.3656 108.314 73.9328 111.699 73.9328C115.138 73.9328 117.73 76.3656 117.73 80.7025C117.729 85.0927 115.138 87.5788 111.699 87.5788ZM152.951 55.845V68.909C151.048 66.899 148.35 65.9469 145.018 65.9469C137.19 65.9469 130.896 71.6069 130.896 80.7033C130.896 89.854 137.19 95.5657 145.018 95.5657C148.72 95.5657 151.523 94.5086 153.428 92.2334V95.0896H163V55.845H152.951ZM147.134 87.5788C143.696 87.5788 141.104 85.0927 141.104 80.7025C141.104 76.3656 143.696 73.9328 147.134 73.9328C150.519 73.9328 153.111 76.3656 153.111 80.7025C153.111 85.0927 150.519 87.5788 147.134 87.5788Z" fill="#958D8A"/>
<path d="M88.2604 46.1433H65.518C66.1524 51.063 70.1192 54.3419 75.6733 54.3419C78.9522 54.3419 81.7026 53.2315 83.7651 50.9571L86.5689 54.236C84.0303 57.1982 80.1695 58.7847 75.5149 58.7847C66.471 58.7847 60.4417 52.8088 60.4417 44.4518C60.4417 36.1482 66.4176 30.1714 74.5103 30.1714C82.603 30.1714 88.3681 35.9889 88.3681 44.6102C88.3663 45.0328 88.3138 45.6673 88.2604 46.1433ZM65.518 42.4942H83.5C82.9715 37.7872 79.4274 34.4549 74.5086 34.4549C69.6431 34.4549 66.0466 37.7338 65.518 42.4942Z" fill="#958D8A"/>
<path d="M92.8073 44.4506C92.8073 36.0945 98.9959 30.1702 107.616 30.1702C112.641 30.1702 116.819 32.2327 119.04 36.147L115.18 38.6331C113.381 35.8836 110.631 34.6138 107.564 34.6138C102.063 34.6138 97.9379 38.4738 97.9379 44.4506C97.9379 50.5332 102.064 54.3416 107.564 54.3416C110.631 54.3416 113.381 53.0718 115.18 50.3215L119.04 52.7551C116.819 56.6684 112.641 58.7844 107.616 58.7844C98.9959 58.7835 92.8073 52.8076 92.8073 44.4506Z" fill="#958D8A"/>
<path d="M122.584 44.4506C122.584 36.0945 128.772 30.1702 137.182 30.1702C145.591 30.1702 151.726 36.0936 151.726 44.4506C151.726 52.8076 145.591 58.7835 137.182 58.7835C128.771 58.7835 122.584 52.8076 122.584 44.4506ZM146.596 44.4506C146.596 38.4738 142.577 34.6138 137.182 34.6138C131.787 34.6138 127.714 38.4738 127.714 44.4506C127.714 50.4274 131.787 54.3416 137.182 54.3416C142.576 54.3407 146.596 50.4265 146.596 44.4506Z" fill="#958D8A"/>
<path d="M89.2274 30.794C89.2274 30.794 89.0708 34.0537 89.1915 35.3392C89.2274 35.7093 89.2887 36.0769 89.3902 36.4453C89.4444 36.6465 89.5065 36.8189 89.5906 36.9756C89.6746 37.1313 89.7831 37.2862 89.9843 37.407C90.1139 37.4857 90.2906 37.5304 90.4525 37.5146L90.4621 37.5137C90.7649 37.477 90.9417 37.3186 91.0659 37.1856C91.1928 37.0447 91.2865 36.8942 91.3722 36.727C91.5464 36.3945 91.7284 36.0016 91.8246 35.5527C92.172 33.925 92.1213 31.3138 92.1362 31.3138C97.6483 31.1169 103.02 27.1143 103.534 20.9774C103.742 17.8971 101.682 12.8444 100.027 8.34912C98.2993 3.88797 96.971 0.00787669 96.9473 9.86983e-07C96.9412 -0.00174917 92.782 2.32421 88.7907 5.98816C84.7531 9.58211 80.9343 14.5403 80.7024 18.2305C80.2097 24.3307 84.3235 29.1926 89.2274 30.794ZM83.4956 18.0572C84.6612 21.891 86.9933 24.7052 90.0517 26.4554C90.1839 23.0426 90.5076 19.9649 91.0703 16.9914C88.7452 15.2754 87.3477 12.9748 86.8411 10.3846C87.6321 12.9844 89.1924 14.9131 91.2383 16.1417C92.2438 11.2605 93.9152 6.59722 96.4792 1.0991C94.2005 7.01988 92.9377 11.7541 92.2412 16.238C94.6555 15.7042 96.8038 14.3032 98.379 11.9719C97.0891 14.3784 94.981 16.2091 92.109 17.1358C91.6724 20.2598 91.4904 23.2351 91.4273 26.4956C94.7815 25.6906 97.7699 23.7601 99.9699 20.5057C98.1795 23.8459 95.4457 26.5053 91.4177 27.8179C91.4055 28.9275 91.3757 30.0379 91.3783 31.2193C91.3783 32.4838 91.3705 35.4661 90.3773 35.6848C89.7262 35.8283 89.9948 33.3221 89.9826 31.025C89.9765 29.9338 89.9852 28.8802 90.0088 27.8572C86.1655 25.3335 84.2552 21.9408 83.4956 18.0572Z" fill="#958D8A"/>
</svg>
