<svg xmlns="http://www.w3.org/2000/svg">
    <symbol id="arrow" viewBox="0 0 22 18" xmlns="http://www.w3.org/2000/svg">
        <path d="M12.5923 16.6858C12.3429 16.9333 12.3429 17.3331 12.5923 17.5807C12.7202 17.7076 12.88 17.7647 13.0463 17.7647C13.2125 17.7647 13.3724 17.7012 13.5003 17.5807L21.813 9.33055C22.0623 9.08305 22.0623 8.68323 21.813 8.43573L13.5003 0.185627C13.2509 -0.0618758 12.8481 -0.0618758 12.5987 0.185627C12.3493 0.43313 12.3493 0.832943 12.5987 1.08045L19.8179 8.24534L1.53644 8.24534C1.18475 8.24534 0.897003 8.53092 0.897003 8.87997C0.897003 9.22901 1.18475 9.51459 1.53644 9.51459L19.8179 9.51459L12.5923 16.6858Z"/>
    </symbol>
</svg>